<svg xmlns="http://www.w3.org/2000/svg" width="258.187" height="36.24" viewBox="0 0 258.187 36.24">
  <g id="Groupe_83" data-name="Groupe 83" transform="translate(-232.182 -260.414)">
    <path id="Tracé_34" data-name="Tracé 34" d="M878.675,591.808c0,5.474-4.553,9.058-11.334,9.058H855.328a1.582,1.582,0,0,1-1.744-1.743V568.7a1.582,1.582,0,0,1,1.744-1.744h10.463c6.491,0,11.286,3.294,11.286,8.768,0,3.488-1.985,6.636-6.394,7.75C876.011,584.057,878.675,587.642,878.675,591.808Zm-19.956-20.635v10.7h5.134c5.764,0,7.944-2.858,7.944-5.764,0-3.246-2.81-4.941-6.055-4.941Zm14.726,20.441c0-3-2.52-5.861-8.525-5.861h-6.2v10.9h8.573C870.877,596.652,873.445,594.666,873.445,591.613Z" transform="translate(-621.402 -305.22)" fill="#f8f9fb"/>
    <path id="Tracé_35" data-name="Tracé 35" d="M891.831,592.727V580.763a1.583,1.583,0,0,1,1.745-1.744h1.452a1.618,1.618,0,0,1,1.793,1.744v11.916c0,4.941,2.228,6.781,4.8,6.781,2.519,0,7.557-1.743,7.557-9.058v-9.639a1.582,1.582,0,0,1,1.744-1.744h1.453a1.618,1.618,0,0,1,1.792,1.744v20.781a1.618,1.618,0,0,1-1.792,1.743h-1.453a1.582,1.582,0,0,1-1.744-1.743v-3c-1.066,3.391-4.166,5.28-8.09,5.28C895.707,603.82,891.831,600.332,891.831,592.727Z" transform="translate(-629.081 -307.642)" fill="#f8f9fb"/>
    <path id="Union_3" data-name="Union 3" d="M27.929,30.7A11.923,11.923,0,0,1,26.1,24.91V3.531H4.431v13.1a8.973,8.973,0,0,1,7.743-3.872c6.411,0,10.669,5.033,10.669,11.228A10.958,10.958,0,0,1,11.807,35.24c-4.2,0-7.876-1.175-9.982-4.544A11.935,11.935,0,0,1,0,24.91V1.549A1.437,1.437,0,0,1,1.591,0H29.327l0,.025a1.372,1.372,0,0,1,1.21,1.524V16.634a8.972,8.972,0,0,1,7.743-3.872c6.411,0,10.67,5.033,10.67,11.228A10.959,10.959,0,0,1,37.909,35.24C33.709,35.24,30.034,34.066,27.929,30.7Zm2.519-6.706c.043,4.259,2.968,7.4,7.184,7.4,4.389,0,6.883-3.355,6.883-7.4,0-4-2.494-7.4-6.883-7.4C33.417,16.591,30.491,19.731,30.448,23.99Zm-26.1,0c.043,4.259,2.968,7.4,7.184,7.4,4.389,0,6.883-3.355,6.883-7.4,0-4-2.494-7.4-6.883-7.4C7.313,16.591,4.388,19.731,4.345,23.99Z" transform="translate(292.349 260.914)" fill="#95bffc" stroke="rgba(0,0,0,0)" stroke-miterlimit="10" stroke-width="1"/>
    <path id="Tracé_38" data-name="Tracé 38" d="M996.589,598.872V567.338a1.618,1.618,0,0,1,1.792-1.744h1.453a1.582,1.582,0,0,1,1.744,1.744v31.534a1.582,1.582,0,0,1-1.744,1.743h-1.453A1.618,1.618,0,0,1,996.589,598.872Z" transform="translate(-650.114 -304.946)" fill="#f8f9fb"/>
    <path id="Tracé_39" data-name="Tracé 39" d="M1009.924,591.122A12.683,12.683,0,0,1,1023,578.382c6.1,0,11.674,3.633,12.352,11.383.145,1.162-.532,1.793-1.7,1.793h-18.794c-.145,4.5,3.584,7.8,8.864,7.8a11.359,11.359,0,0,0,6.588-2.034,1.761,1.761,0,0,1,2.47.242l.339.388c.775.823.775,1.84-.339,2.761a14.1,14.1,0,0,1-9.107,3C1015.155,603.716,1009.924,598.049,1009.924,591.122Zm20.49-3.245c-1.26-4.312-4.65-5.232-7.314-5.232a7.812,7.812,0,0,0-7.8,5.232Z" transform="translate(-652.791 -307.514)" fill="#f8f9fb"/>
    <path id="Tracé_40" data-name="Tracé 40" d="M1048.639,593.863V581.171h-2.955a.9.9,0,0,1-.968-1.017v-1.889a.869.869,0,0,1,.968-.969h3.052l.872-5.571a1.466,1.466,0,0,1,1.55-1.405h1.018a1.363,1.363,0,0,1,1.453,1.5V577.3h6.636a.87.87,0,0,1,.969.969v1.889a.906.906,0,0,1-.969,1.017h-6.636v12.983c0,2.615,1.259,3.633,2.809,3.633a2.607,2.607,0,0,0,2.858-2.616,3.665,3.665,0,0,0-.1-.92c-.1-.679.193-1.114.871-1.114h2.229a.988.988,0,0,1,1.113.872,8.849,8.849,0,0,1,.194,1.793c0,3.633-2.616,6.3-7.266,6.3C1052.466,602.1,1048.639,600.111,1048.639,593.863Z" transform="translate(-659.777 -305.896)" fill="#f8f9fb"/>
    <path id="Tracé_41" data-name="Tracé 41" d="M1073.325,592.757V580.793a1.582,1.582,0,0,1,1.744-1.744h1.453a1.619,1.619,0,0,1,1.793,1.744v11.916c0,4.941,2.228,6.781,4.8,6.781,2.518,0,7.557-1.743,7.557-9.058v-9.639a1.582,1.582,0,0,1,1.744-1.744h1.453a1.618,1.618,0,0,1,1.792,1.744v20.781a1.618,1.618,0,0,1-1.792,1.743h-1.453a1.582,1.582,0,0,1-1.744-1.743v-3c-1.066,3.391-4.166,5.28-8.09,5.28C1077.2,603.85,1073.325,600.362,1073.325,592.757Z" transform="translate(-665.521 -307.648)" fill="#f8f9fb"/>
    <path id="Tracé_42" data-name="Tracé 42" d="M1110.36,601.44V580.659a1.618,1.618,0,0,1,1.792-1.744h1.454a1.582,1.582,0,0,1,1.743,1.744v3c1.066-3.391,4.166-5.28,8.09-5.28,5.377,0,9.3,3.488,9.3,11.093V601.44a1.619,1.619,0,0,1-1.792,1.743h-1.453a1.582,1.582,0,0,1-1.744-1.743V589.523c0-4.99-2.277-6.781-4.844-6.781-2.518,0-7.557,1.7-7.557,9.058v9.639a1.582,1.582,0,0,1-1.743,1.743h-1.454A1.618,1.618,0,0,1,1110.36,601.44Z" transform="translate(-672.956 -307.514)" fill="#f8f9fb"/>
    <path id="Tracé_43" data-name="Tracé 43" d="M1144.788,591.122a12.684,12.684,0,0,1,13.078-12.74c6.1,0,11.674,3.633,12.352,11.383.145,1.162-.533,1.793-1.7,1.793h-18.795c-.145,4.5,3.585,7.8,8.864,7.8a11.36,11.36,0,0,0,6.588-2.034,1.762,1.762,0,0,1,2.471.242l.339.388c.775.823.775,1.84-.339,2.761a14.1,14.1,0,0,1-9.107,3C1150.02,603.716,1144.788,598.049,1144.788,591.122Zm20.49-3.245c-1.26-4.312-4.651-5.232-7.315-5.232a7.813,7.813,0,0,0-7.8,5.232Z" transform="translate(-679.869 -307.514)" fill="#f8f9fb"/>
  </g>
</svg>
