<svg xmlns="http://www.w3.org/2000/svg" width="25.79" height="26.308" viewBox="0 0 25.79 26.308">
  <path id="Union_7" data-name="Union 7" d="M12.781,26.307a12.272,12.272,0,0,1-8.876-3.629,1.4,1.4,0,1,1,2.112-1.836,9.477,9.477,0,0,0,6.79,2.667,10.511,10.511,0,0,0,7.111-3.159,9.984,9.984,0,0,0,3.073-7.179,10.418,10.418,0,0,0-2.984-7.492,10.009,10.009,0,0,0-7.2-2.88A9.56,9.56,0,0,0,5.617,5.85L7.924,8.145c.439.81-.279,1.194-.839,1.194H1.013A1.013,1.013,0,0,1,0,8.327V2.253c.059-.916.556-1.043,1.247-.768C2.656,2.894,3.257,3.5,3.636,3.876A12.355,12.355,0,0,1,12.781,0a12.772,12.772,0,0,1,9.2,3.69,13.2,13.2,0,0,1,3.812,9.48,12.856,12.856,0,0,1-3.9,9.168,13.238,13.238,0,0,1-9.012,3.969Zm1.727-8.773-2.457-1.785a1.512,1.512,0,0,1-.524-.682,1.394,1.394,0,0,1-.333-.906v-6.4a1.4,1.4,0,0,1,2.8,0v5.641l2.3,1.671a1.518,1.518,0,1,1-1.785,2.457Z" transform="translate(0 0)" fill="#f7f7f7"/>
</svg>
