<svg xmlns="http://www.w3.org/2000/svg" width="27.186" height="26.387" viewBox="0 0 27.186 26.387">
  <path id="Tracé_87" data-name="Tracé 87" d="M13.193,2.8a10.395,10.395,0,0,0,0,20.79,13.665,13.665,0,0,0,6.763-1.642,2.816,2.816,0,0,1,1.788-.532c.453,0,1.854.544,2.213,0s-.952-2.5-.728-3.519c.062-.709.123-1.263.177-1.757a22.864,22.864,0,0,0,.182-2.944A10.407,10.407,0,0,0,13.193,2.8m0-2.8A13.193,13.193,0,0,1,26.387,13.193a49.923,49.923,0,0,1-.395,5.23c-.332.63,1.63,5.016,1.1,5.688-.658.824-3.216.1-4.846.1a1.565,1.565,0,0,0-.9.168,16.632,16.632,0,0,1-8.157,2.007A13.193,13.193,0,0,1,13.193,0Z" fill="#f7f7f7"/>
</svg>
