<svg xmlns="http://www.w3.org/2000/svg" width="28.166" height="26.124" viewBox="0 0 28.166 26.124">
  <path id="Union_8" data-name="Union 8" d="M25.93,26.123c-.769-.068-.638-.747-.571-1.517.16-1.82.03-5.237-1-6.661-1.391-1.923-4.46-2.674-4.491-2.681a1.4,1.4,0,0,1-.434-.185,8.222,8.222,0,0,1-10.889.1,1.408,1.408,0,0,1-.245.083c-.031.007-3.1.758-4.491,2.681-1.03,1.423-1.16,4.841-1,6.661.068.769.2,1.448-.571,1.517-.042,0-1.273,0-1.315,0-.716,0-.854-.539-.883-1.287.026-.964-.474-5.8,1.5-8.531a10.78,10.78,0,0,1,5.1-3.46A8.727,8.727,0,0,1,5.551,8.6,8.49,8.49,0,0,1,13.931,0a8.49,8.49,0,0,1,8.381,8.6,8.729,8.729,0,0,1-1.047,4.162,10.989,10.989,0,0,1,5.36,3.546c1.977,2.732,1.477,7.566,1.5,8.531-.029.748-.167,1.287-.883,1.287l-.964,0C26.09,26.124,25.944,26.124,25.93,26.123ZM8.217,8.6a5.715,5.715,0,1,0,5.714-5.8A5.762,5.762,0,0,0,8.217,8.6Z" fill="#f7f7f7"/>
</svg>
