<svg xmlns="http://www.w3.org/2000/svg" width="37.395" height="27.387" viewBox="0 0 37.395 27.387">
  <path id="Union_6" data-name="Union 6" d="M20.767,22.985a8.972,8.972,0,0,1-1.357-4.333V2.644H3.295v9.811a6.657,6.657,0,0,1,5.758-2.9c4.767,0,7.933,3.768,7.933,8.407a8.178,8.178,0,0,1-8.206,8.424c-3.123,0-5.856-.88-7.422-3.4A8.985,8.985,0,0,1,0,18.652V1.159A1.072,1.072,0,0,1,1.183,0H21.806l0,.018a1.026,1.026,0,0,1,.9,1.141v11.3a6.655,6.655,0,0,1,5.757-2.9c4.767,0,7.934,3.768,7.934,8.407a8.179,8.179,0,0,1-8.207,8.424C25.065,26.387,22.332,25.507,20.767,22.985Zm1.873-5.021a5.272,5.272,0,0,0,5.342,5.54c3.263,0,5.118-2.512,5.118-5.54,0-3-1.855-5.541-5.118-5.541A5.273,5.273,0,0,0,22.64,17.963Zm-19.41,0A5.272,5.272,0,0,0,8.572,23.5c3.264,0,5.118-2.512,5.118-5.54,0-3-1.855-5.541-5.118-5.541A5.273,5.273,0,0,0,3.231,17.963Z" transform="translate(0.5 0.5)" fill="#f7f7f7" stroke="rgba(0,0,0,0)" stroke-miterlimit="10" stroke-width="1"/>
</svg>
